# File created by Blade
# Date/Time:  Wed Sep 24 19:10:19 2014
# Frame Rate: 120.000 fps
#------------------------------------------------------
:FULLY-SPECIFIED
:DEGREES
1821
root -8.053889 32.867461 -5.104921 6.352340 19.099909 10.244148
Spine -0.442585 3.610062 0.259731
Head 2.975625 7.264446 -0.570587
LeftShoulder -4.212376 11.804828 13.371698
LeftArm 24.760125 -23.656851 -66.435761
LeftForeArm -0.595097 0.000000 56.268911
LeftHand -34.544765 -0.000000 54.010542
LeftHandThumb1 -26.253704 0.000000 33.147579
RightShoulder -15.908828 9.552251 -19.082644
RightArm -18.306872 -25.245367 87.696019
RightForeArm -20.592211 -0.000000 23.826467
RightHand -4.538761 -0.000000 10.182522
RightHandThumb1 -24.326973 -0.000000 -32.862282
LeftUpLeg -103.022388 10.324889 -27.445640
LeftLeg 101.932194 -0.000000 -0.000000
LeftFoot 36.246506 16.941066 -24.075737
LeftToeBase 7.409135 -0.000000 -0.000000
RightUpLeg -13.045283 -10.908033 -2.564781
RightLeg 20.978000 -0.000000 -0.000000
RightFoot -14.492451 -22.751870 -4.505650
RightToeBase 0.328466 -0.000000 -0.000000
1822
root -8.019165 32.896259 -5.097081 6.374849 18.963151 10.735243
Spine -0.345547 3.608674 -0.351514
Head 3.110709 7.365145 -0.554956
LeftShoulder -4.275555 11.913044 13.408193
LeftArm 24.577839 -23.762134 -66.271049
LeftForeArm -0.558202 -0.000000 56.275255
LeftHand -34.617218 -0.000000 53.762718
LeftHandThumb1 -26.253704 0.000000 33.147579
RightShoulder -15.937919 9.612200 -19.049282
RightArm -18.370981 -25.456020 87.908528
RightForeArm -20.365601 -0.000000 23.520313
RightHand -4.549572 -0.000000 10.567808
RightHandThumb1 -24.326973 -0.000000 -32.862282
LeftUpLeg -102.384277 10.169464 -25.636951
LeftLeg 101.961720 -0.000000 -0.000000
LeftFoot 36.596854 16.505690 -23.940520
LeftToeBase 7.340618 -0.000000 -0.000000
RightUpLeg -12.926869 -10.820257 -3.138797
RightLeg 21.065188 -0.000000 -0.000000
RightFoot -14.509122 -22.673491 -4.428530
RightToeBase 0.258840 -0.000000 -0.000000
1823
root -7.980713 32.927473 -5.086637 6.350905 18.741325 11.255184
Spine -0.185648 3.688341 -1.015319
Head 3.226930 7.437184 -0.550306
LeftShoulder -4.315732 11.945643 13.418264
LeftArm 24.302193 -23.861058 -65.983920
LeftForeArm -0.623636 0.000000 56.278729
LeftHand -34.568490 -0.000000 53.785405
LeftHandThumb1 -26.253704 0.000000 33.147579
RightShoulder -15.963596 9.634177 -19.010765
RightArm -18.356426 -25.617401 88.127113
RightForeArm -20.231823 0.000000 23.169541
RightHand -4.445091 -0.000000 10.601548
RightHandThumb1 -24.326973 -0.000000 -32.862282
LeftUpLeg -101.710960 10.043140 -23.683831
LeftLeg 102.065721 -0.000000 -0.000000
LeftFoot 36.843521 15.897131 -23.353236
LeftToeBase 7.568145 -0.000000 -0.000000
RightUpLeg -12.767525 -10.586770 -3.756971
RightLeg 21.156184 -0.000000 -0.000000
RightFoot -14.482797 -22.715624 -4.379138
RightToeBase 0.235872 -0.000000 -0.000000
1824
root -7.938518 32.961828 -5.082903 6.388348 18.486208 11.859019
Spine -0.050917 3.805530 -1.796990
Head 3.304156 7.529631 -0.531029
LeftShoulder -4.402161 12.053338 13.443916
LeftArm 24.200830 -24.007788 -65.756833
LeftForeArm -0.682493 -0.000000 56.170572
LeftHand -34.649213 -0.000000 54.013016
LeftHandThumb1 -26.253704 0.000000 33.147579
RightShoulder -16.010328 9.692319 -18.989889
RightArm -18.417980 -25.929871 88.452977
RightForeArm -20.067990 -0.000000 22.899636
RightHand -4.556109 -0.000000 10.556281
RightHandThumb1 -24.326973 -0.000000 -32.862282
LeftUpLeg -100.996188 9.861838 -21.545356
LeftLeg 102.171714 -0.000000 -0.000000
LeftFoot 37.126971 15.243911 -23.182215
LeftToeBase 7.024516 -0.000000 -0.000000
RightUpLeg -12.682714 -10.389457 -4.456623
RightLeg 21.288044 -0.000000 -0.000000
RightFoot -14.461296 -22.702139 -4.344465
RightToeBase 0.158072 -0.000000 -0.000000
1825
root -7.893706 32.999075 -5.073312 6.360060 18.156195 12.498403
Spine 0.166401 3.964045 -2.663168
Head 3.367639 7.650213 -0.434874
LeftShoulder -4.498510 12.116992 13.458129
LeftArm 23.968081 -24.104216 -65.360172
LeftForeArm -0.840136 -0.000000 56.139089
LeftHand -34.670234 0.000000 53.826918
LeftHandThumb1 -26.253704 0.000000 33.147579
RightShoulder -16.001105 9.726721 -18.899500
RightArm -18.362511 -26.129810 88.704263
RightForeArm -19.897419 -0.000000 22.593956
RightHand -4.495695 0.000000 10.810194
RightHandThumb1 -24.326973 -0.000000 -32.862282
LeftUpLeg -100.219608 9.709408 -19.255785
LeftLeg 102.325639 -0.000000 -0.000000
LeftFoot 37.445856 14.090666 -22.361128
LeftToeBase 7.448483 -0.000000 -0.000000
RightUpLeg -12.541362 -10.148243 -5.213247
RightLeg 21.465050 -0.000000 -0.000000
RightFoot -14.422971 -22.723523 -4.370651
RightToeBase 0.125459 -0.000000 -0.000000
1826
root -7.839442 33.039841 -5.069054 6.381625 17.769349 13.229881
Spine 0.346533 4.169196 -3.617310
Head 3.437149 7.792417 -0.368913
LeftShoulder -4.613389 12.213867 13.447706
LeftArm 23.860647 -24.333459 -65.055131
LeftForeArm -0.897008 -0.000000 56.004421
LeftHand -34.900468 -0.000000 53.690193
LeftHandThumb1 -26.253704 0.000000 33.147579
RightShoulder -15.956450 9.810208 -18.861012
RightArm -18.428483 -26.176757 89.028258
RightForeArm -19.929395 -0.000000 22.398828
RightHand -4.510267 -0.000000 10.992042
RightHandThumb1 -24.326973 -0.000000 -32.862282
LeftUpLeg -99.434788 9.500508 -16.861167
LeftLeg 102.425380 -0.000000 -0.000000
LeftFoot 38.171089 13.063654 -21.776246
LeftToeBase 6.298877 -0.000000 -0.000000
RightUpLeg -12.468892 -9.934037 -6.064499
RightLeg 21.653850 -0.000000 -0.000000
RightFoot -14.386214 -22.616808 -4.409033
RightToeBase 0.129082 -0.000000 -0.000000
1827
root -7.783301 33.081793 -5.063685 6.384052 17.334726 13.992701
Spine 0.549446 4.442498 -4.642216
Head 3.463701 7.926316 -0.280402
LeftShoulder -4.725136 12.300155 13.459704
LeftArm 23.741921 -24.568271 -64.719744
LeftForeArm -1.344870 -0.000000 55.840873
LeftHand -34.551086 -0.000000 53.567318
LeftHandThumb1 -26.253704 0.000000 33.147579
RightShoulder -15.926040 9.831061 -18.792381
RightArm -18.390965 -26.372615 89.338782
RightForeArm -19.747226 -0.000000 22.183703
RightHand -4.463471 0.000000 11.043024
RightHandThumb1 -24.326973 -0.000000 -32.862282
LeftUpLeg -98.621020 9.251811 -14.328295
LeftLeg 102.623721 -0.000000 -0.000000
LeftFoot 38.778535 11.958575 -21.282292
LeftToeBase 6.136430 -0.000000 -0.000000
RightUpLeg -12.402611 -9.767817 -6.962142
RightLeg 21.890741 -0.000000 -0.000000
RightFoot -14.409958 -22.399236 -4.342778
RightToeBase 0.036601 -0.000000 -0.000000
1828
root -7.715270 33.128068 -5.063274 6.465781 16.789186 14.895678
Spine 0.674677 4.803859 -5.842568
Head 3.515315 8.076457 -0.205300
LeftShoulder -4.844918 12.432396 13.481331
LeftArm 23.634676 -24.803586 -64.314019
LeftForeArm -1.644175 -0.000000 55.610746
LeftHand -34.504446 -0.000000 53.479396
LeftHandThumb1 -26.253704 0.000000 33.147579
RightShoulder -15.890422 9.885689 -18.751260
RightArm -18.413502 -26.510926 89.728672
RightForeArm -19.612425 -0.000000 21.990477
RightHand -4.471865 0.000000 11.043687
RightHandThumb1 -24.326973 -0.000000 -32.862282
LeftUpLeg -97.816111 8.985274 -11.868780
LeftLeg 102.856468 -0.000000 -0.000000
LeftFoot 39.201989 10.574961 -20.394241
LeftToeBase 6.713939 -0.000000 -0.000000
RightUpLeg -12.451029 -9.630818 -8.011138
RightLeg 22.196669 -0.000000 -0.000000
RightFoot -14.411138 -22.163909 -4.422441
RightToeBase -0.027502 -0.000000 0.000000
1829
root -7.649749 33.176593 -5.058073 6.498278 16.235158 15.774667
Spine 0.817106 5.186587 -7.037968
Head 3.591658 8.164347 -0.099021
LeftShoulder -4.954710 12.541322 13.482540
LeftArm 23.532866 -25.146685 -63.944252
LeftForeArm -2.044507 -0.000000 55.344321
LeftHand -34.198566 -0.000000 53.117294
LeftHandThumb1 -26.253704 0.000000 33.147579
RightShoulder -15.839716 9.917886 -18.682188
RightArm -18.381554 -26.673176 90.086987
RightForeArm -19.368277 0.000000 21.797238
RightHand -4.458824 -0.000000 11.231505
RightHandThumb1 -24.326973 -0.000000 -32.862282
LeftUpLeg -96.987987 8.660103 -9.279781
LeftLeg 103.172596 -0.000000 -0.000000
LeftFoot 39.703317 9.394075 -19.740408
LeftToeBase 7.593436 -0.000000 -0.000000
RightUpLeg -12.429714 -9.461787 -9.041523
RightLeg 22.416261 -0.000000 -0.000000
RightFoot -14.348929 -21.941757 -4.554639
RightToeBase -0.151323 -0.000000 0.000000
1830
root -7.578227 33.229617 -5.050747 6.511308 15.647156 16.720630
Spine 0.970551 5.637796 -8.318941
Head 3.696654 8.270937 0.023650
LeftShoulder -5.046958 12.641740 13.441757
LeftArm 23.488746 -25.491999 -63.501275
LeftForeArm -2.211525 -0.000000 55.018386
LeftHand -34.258772 -0.000000 53.353404
LeftHandThumb1 -26.253704 0.000000 33.147579
RightShoulder -15.790861 10.023772 -18.615592
RightArm -18.464066 -26.843452 90.501235
RightForeArm -19.209075 0.000000 21.671592
RightHand -4.505197 -0.000000 11.295782
RightHandThumb1 -24.326973 -0.000000 -32.862282
LeftUpLeg -96.102672 8.253183 -6.654224
LeftLeg 103.550375 -0.000000 -0.000000
LeftFoot 40.299788 8.352990 -19.223623
LeftToeBase 6.860202 -0.000000 -0.000000
RightUpLeg -12.390951 -9.339815 -10.155209
RightLeg 22.635406 -0.000000 -0.000000
RightFoot -14.313879 -21.652828 -4.665235
RightToeBase -0.200688 -0.000000 0.000000
1831
root -7.510539 33.282093 -5.042406 6.512855 14.971552 17.613621
Spine 1.077521 6.178384 -9.576649
Head 3.831546 8.346254 0.174127
LeftShoulder -5.155431 12.713205 13.426324
LeftArm 23.396660 -25.768103 -63.053028
LeftForeArm -2.299405 -0.000000 54.751290
LeftHand -34.220726 -0.000000 53.381177
LeftHandThumb1 -26.253704 0.000000 33.147579
RightShoulder -15.741330 10.013408 -18.502619
RightArm -18.396579 -27.129224 90.852379
RightForeArm -19.059472 -0.000000 21.543803
RightHand -4.419549 -0.000000 11.426566
RightHandThumb1 -24.326973 -0.000000 -32.862282
LeftUpLeg -95.271798 7.883760 -3.981735
LeftLeg 104.054685 -0.000000 -0.000000
LeftFoot 40.759370 7.132493 -18.513447
LeftToeBase 7.164209 -0.000000 -0.000000
RightUpLeg -12.362220 -9.034262 -11.217164
RightLeg 22.775382 -0.000000 -0.000000
RightFoot -14.213684 -21.464071 -4.783820
RightToeBase -0.342224 -0.000000 0.000000
1832
root -7.438804 33.333393 -5.029103 6.496020 14.218957 18.479888
Spine 1.120878 6.775326 -10.806944
Head 3.992551 8.408739 0.299213
LeftShoulder -5.305636 12.891666 13.406420
LeftArm 23.303581 -25.941388 -62.574066
LeftForeArm -2.489410 -0.000000 54.564609
LeftHand -34.126653 -0.000000 53.110722
LeftHandThumb1 -26.253704 0.000000 33.147579
RightShoulder -15.630528 10.102677 -18.457637
RightArm -18.481917 -27.383743 91.292619
RightForeArm -19.001838 -0.000000 21.477610
RightHand -4.402567 -0.000000 11.470362
RightHandThumb1 -24.326973 -0.000000 -32.862282
LeftUpLeg -94.476871 7.535395 -1.290004
LeftLeg 104.670301 -0.000000 -0.000000
LeftFoot 41.205739 5.673010 -17.603560
LeftToeBase 7.988427 -0.000000 -0.000000
RightUpLeg -12.392174 -8.926790 -12.257494
RightLeg 22.973107 -0.000000 -0.000000
RightFoot -14.139961 -21.049131 -5.016598
RightToeBase -0.424493 -0.000000 0.000000
1833
root -7.347007 33.395218 -5.003995 6.440772 13.397468 19.539039
Spine 1.182989 7.466196 -12.281822
Head 4.179666 8.432536 0.535899
LeftShoulder -5.458196 13.020128 13.388866
LeftArm 23.263580 -26.208427 -62.135025
LeftForeArm -2.470647 -0.000000 54.354068
LeftHand -34.386761 -0.000000 53.047736
LeftHandThumb1 -26.253704 0.000000 33.147579
RightShoulder -15.549803 10.105212 -18.317510
RightArm -18.467412 -27.697053 91.665514
RightForeArm -18.946656 -0.000000 21.398753
RightHand -4.338582 -0.000000 11.601523
RightHandThumb1 -24.326973 -0.000000 -32.862282
LeftUpLeg -93.552705 7.118915 1.187738
LeftLeg 105.377490 -0.000000 -0.000000
LeftFoot 41.718443 4.139525 -16.700430
LeftToeBase 7.466606 -0.000000 -0.000000
RightUpLeg -12.315121 -8.826233 -13.545639
RightLeg 23.093651 -0.000000 -0.000000
RightFoot -14.079482 -20.547836 -5.251131
RightToeBase -0.610469 -0.000000 0.000000
